# xmcd
#
# Track frame offsets: 
#        179
#        7660
#        21804
#        35688
#        47239
#        65311
#        77861
#        92080
#        101202
#        114419
#        126757
#        140911
#
# Disc length: 1932 seconds
#
# Revision: 3
# Processed by: cddbd v1.5.2PL0 Copyright (c) Steve Scherf et al.
# Submitted via: ExactAudioCopyFreeDBPlugin 1.0
#
DISCID=9e078a0c
DTITLE=JOHNNY CASH - 1967 - Johnny Cash - From Sea to Shining Sea
DYEAR=1967
DGENRE=Country
TTITLE0=From sea to shining sea
TTITLE1=The whirl and the suck
TTITLE2=Call daddy from the mine
TTITLE3=The frozen four-hundred-pound fair-to-middlin' cotton picker
TTITLE4=The walls of a prison
TTITLE5=The masterpiece
TTITLE6=You and Tennessee
TTITLE7=Another song to sing
TTITLE8=The flint arrowhead
TTITLE9=Cisco Clifton's fillin' station
TTITLE10=Shrimpin' sailin'
TTITLE11=From sea to shining sea [finale]
EXTD=
EXTT0=
EXTT1=
EXTT2=
EXTT3=
EXTT4=
EXTT5=
EXTT6=
EXTT7=
EXTT8=
EXTT9=
EXTT10=
EXTT11=
PLAYORDER=
